<?xml version="1.0" encoding="utf-8"?>
<!-- Generator: Adobe Illustrator 23.0.0, SVG Export Plug-In . SVG Version: 6.00 Build 0)  -->
<svg version="1.1" id="Camada_1" xmlns="http://www.w3.org/2000/svg" xmlns:xlink="http://www.w3.org/1999/xlink" x="0px" y="0px"
	 viewBox="0 0 4000 1899" style="enable-background:new 0 0 4000 1899;" xml:space="preserve">
<style type="text/css">
	.st0{display:none;opacity:0.3;}
	.st1{display:inline;fill:none;}
	.st2{display:inline;fill:none;stroke:#20232A;stroke-width:2;stroke-miterlimit:10;}
	.st3{display:none;opacity:0.47;}
	.st4{display:inline;}
	.st5{fill:#0E6B4E;}
	.st6{fill:#FFFFFF;}
	.st7{fill:#20232A;}
	.st8{fill:#2F495E;}
	.st9{fill:#00E0A1;}
	.st10{fill:#5FCCEA;}
	.st11{fill:#61DAFB;}
</style>
<g>
	<path class="st6" d="M726.7,1135.9C718.1,1122.7,723.2,1131.2,726.7,1135.9L726.7,1135.9z"/>
	<path class="st6" d="M1138,724.6c-0.1-0.1-0.1-0.1-0.2-0.2c-2.3-1.5-4.5-3-6.8-4.6C1131.1,720,1132.9,721.3,1138,724.6z"/>
	<path class="st6" d="M1419.5,1105.3C1413.7,1089.5,1417,1099.5,1419.5,1105.3L1419.5,1105.3z"/>
	<path class="st6" d="M1546.4,1218.6C1541.6,1217.7,1543.2,1218.1,1546.4,1218.6L1546.4,1218.6z"/>
	<path class="st6" d="M1060.7,173.5C1074.3,175.9,1067,174.5,1060.7,173.5L1060.7,173.5z"/>
	<path class="st6" d="M850.8,173.8C860,172.8,855.9,173.2,850.8,173.8L850.8,173.8z"/>
	<path class="st6" d="M478,1576.9c-0.6-0.4-1.2-0.9-1.8-1.4c0.1,0,0.1,0.1,0.2,0.1C476.9,1576.1,477.4,1576.5,478,1576.9z"/>
	<path class="st6" d="M1586.9,1219.5c2.4-0.4,4.8-0.8,7.2-1.3c3.6-0.9,4-1.4-8,1.4h0.1C1586.5,1219.5,1586.7,1219.5,1586.9,1219.5z"
		/>
	<path class="st6" d="M2167,1134.8c-2.3,12.2-1.6,10.4-1,6.9c0.3-1.9,0.5-3.8,0.8-5.7C2166.9,1135.6,2166.9,1135.2,2167,1134.8z"/>
	<path class="st6" d="M3366.3,224.8c-1.3-0.5-2.5-1-3.8-1.5c-2.1-0.7-1.7-0.3,8.6,3.6c-0.5-0.2-1-0.5-1.5-0.7
		C3368.5,225.7,3367.4,225.2,3366.3,224.8z"/>
	<path class="st6" d="M3973.3,856.4c-8.9-104.9-35.1-204.9-77.9-301c-78.3-175.8-218.2-325.3-386.8-417.8
		C3328.2,38.6,3120,6,2917.6,40c-191,32.1-371.4,131.5-502.8,273.5c-137.4,148.6-220.3,338.2-238.1,539.6c0,0.1,0,0.3,0,0.4
		c-0.4,3.1-0.7,6.3-0.8,9.5c0,0.2,0,0.4,0,0.7c-1.5,20.1-2.3,40.2-2.5,60.3c0,4.6,0.9,46.2,0.5,60.1c-0.3,11.7-0.5,23.5-0.6,35.2
		c-0.2,23.6-0.5,47-2.1,70.5c-0.7,10.8-1.7,21.6-2.8,32.3c-0.4,4.2-0.9,8.3-1.4,12.5c0.1-0.5,0.2-0.9,0.3-1.5
		c-0.2,0.9-0.3,1.8-0.4,2.7c-0.1,0.8-0.2,1.6-0.3,2.4c-0.1,1-0.3,2.2-0.5,3.3c0,0.2-0.1,0.4-0.1,0.7c-6.6,43.4-16.6,86.3-29.7,128.2
		c-6.7,21.4-14.3,42.6-22.6,63.4c-1.7,4.2-3.5,8.3-5.1,12.4c7.4-18.9,1.1-2.8-0.9,1.6c-4.5,10.2-9.3,20.3-14.2,30.3
		c-19,38.6-40.8,75.7-65.1,111.1c-5.9,8.5-11.9,17-18,25.3c-0.9,1.2-6,7.8-7.2,9.6c-2,2.6-4.1,5.2-6.2,7.7
		c-13,16.1-26.6,31.7-40.7,46.9c-14.6,15.7-29.9,30.8-46.3,44.7c-2.7,2.3-5.5,4.6-8.3,6.9c-1.1,0.9-2.3,1.8-3.3,2.6
		c-8.2,6-16.6,11.8-25.1,17.3c-16.3,10.5-33.3,20-50.7,28.5c-4.2,2-8.4,4-12.6,6c-4.7,2.1-19.7,7.9,0.4,0.1
		c-9.3,3.6-18.6,7.4-28,10.8c-37.1,13.2-75.5,22.7-114.2,29.6c-9.6,1.7-19.2,3.2-28.9,4.6c-0.4,0.1-0.7,0.1-1,0.1
		c-5.3,0.6-10.6,1.3-16,1.9c-20.7,2.3-41.5,4.1-62.4,5.4c-107.3,7-215.1,4.7-322.5,4.7c-88.7,0-177.4,0-266.1,0c-1.9,0-3.8,0-5.7,0
		c-0.4,0-0.9,0-1.3,0c-0.4,0-0.9,0-1.3,0c-21.7,0-43.5-0.8-65.1-2.5c-10.4-0.8-20.8-1.8-31.2-2.9c-1.5-0.2-8.4-1.1-11.4-1.4
		c-2.7-0.4-5.4-0.8-6.4-1c-41.7-6.5-82.9-16.1-123.2-28.7c-19.9-6.2-39.6-13.2-59-20.8c-3.8-1.5-7.5-3-11.3-4.6
		c-1.1-0.5-2.1-0.9-3.2-1.4c-9.8-4.3-19.4-8.8-29-13.4c-37.1-18-72.9-38.6-107-61.7c-8.3-5.6-16.4-11.3-24.5-17.1
		c-4-2.9-8-5.9-12-8.9c-0.4-0.3-0.9-0.7-1.3-1c3.1,2.4,5.2,4.2-0.7-0.5c-0.3-0.2-0.6-0.5-0.9-0.7c-1-0.8-2-1.6-3.1-2.3
		c0.8,0.5,1.8,1.3,2.9,2.2c-15.6-12.5-31-25.4-45.8-38.9c-30.3-27.5-58.6-57.2-84.8-88.7c-3.2-3.8-6.3-7.7-9.4-11.5
		c-0.7-0.8-1.3-1.7-2-2.5c-5.6-7.9-11.7-15.5-17.3-23.4c-11.9-16.7-23.2-33.9-33.8-51.4c-20.3-33.5-37.4-68.2-53.6-103.8
		c-1-2.3-2.2-5-2.8-6.7c-1.9-4.7-3.7-9.4-5.5-14.1c-3.8-10-7.4-20.1-10.8-30.3c-6.6-19.8-12.6-39.9-17.7-60.2
		c-5.2-20.4-9.6-41.1-13.3-61.9c-0.9-5.1-1.7-10.1-2.5-15.2c-0.2-1.5-1.2-8.6-1.7-11.5c-0.2-1.9-0.4-3.6-0.5-4.3
		c-0.7-5.8-1.3-11.6-1.8-17.4c-4-43.2-4.8-86.8-2.2-130.2c0.6-10.4,1.4-20.9,2.4-31.3c0.5-5.2,1-10.4,1.6-15.5
		c0.1-0.9,0.3-2.9,0.6-5.1c0.2-1.2,1.5-10.9,1.8-12.7c0.8-5.1,1.6-10.2,2.5-15.2c1.9-10.7,4-21.4,6.3-32.1
		c8.8-40.8,20.6-81,35.3-120.1c3.2-8.6,7-17.1,10.2-25.7c0.4-0.9,0.8-1.8,1.2-2.7c2.3-5.1,4.6-10.2,7-15.3c8.7-18.6,18-36.9,28-54.8
		c19.3-34.7,41.3-67.8,65-99.6c0.8-1,1.6-2.1,2.4-3.1c3.1-3.9,6.2-7.7,9.3-11.5c6.7-8.1,13.5-16,20.4-23.9
		c13.5-15.2,27.5-29.9,42.1-44.1c14.5-14.2,29.6-27.9,45.1-41.1c7.5-6.4,15.2-12.6,22.9-18.8c0.1-0.1,0.2-0.2,0.4-0.3
		c4.4-3.3,8.9-6.7,13.4-9.9c33.1-24,67.9-45.7,104-64.8c18.2-9.6,36.7-18.5,55.6-26.8c0.7-0.3,1.4-0.6,2.2-0.9
		c4.1-1.6,8.1-3.3,12.2-4.9c9.9-3.9,20-7.6,30-11.1c39.6-13.8,80.1-24.7,121.3-32.5c10.1-1.9,20.2-3.7,30.4-5.2
		c1.6-0.2,4.2-0.6,6.5-0.8c-1.6,0.2-3.6,0.4-6.1,0.6c5.8-0.6,11.6-1.4,17.4-2.1c21.5-2.4,43-3.9,64.6-4.6
		c43.3-1.5,86.7,0.3,129.7,5.3c1.1,0.1,2.7,0.4,4.3,0.6c-1.1-0.2-2.4-0.4-3.8-0.7c5.1,0.9,10.2,1.5,15.3,2.3
		c10.8,1.7,21.5,3.6,32.2,5.7c20.6,4.1,41,8.9,61.3,14.5c20.1,5.5,39.9,11.8,59.5,18.8c9.5,3.4,18.8,6.9,28.2,10.6
		c1.2,0.5,6.6,2.7,9.6,3.9c2.7,1.2,5.4,2.3,6.4,2.8c37.5,16.7,73.7,36.1,108.4,58.1c17.3,10.9,34.1,22.4,50.6,34.5
		c3.2,2.4,6.4,4.8,9.5,7.1c0.9,0.7,1.8,1.4,2.7,2.1c8.2,6.5,16.3,13.2,24.3,20.1c30.9,26.5,59.9,55.2,86.8,85.8
		c6.5,7.4,12.9,14.9,19.2,22.6c3.1,3.8,6.2,7.7,9.3,11.5c0.4,0.5,0.8,1,1.2,1.5c0.1,0.1,0.2,0.2,0.2,0.3c12.2,16.4,24,33,35.1,50.2
		c22.3,34.4,42.1,70.4,59.3,107.7c2.1,4.5,4.1,9.1,6.1,13.7c0.5,1.2,1,2.4,1.5,3.7c3.5,8.8,7.1,17.6,10.4,26.5
		c7.2,19.5,13.7,39.3,19.5,59.3c5.8,20.2,10.9,40.5,15.2,61.1c2,9.4,3.8,18.8,5.4,28.3c0.9,5.1,1.7,10.1,2.5,15.2
		c0.9,6.1,2.9,28.5,0.8,4.2c3.4,39,8.1,77.8,6.9,117.1c-0.3,9.2-1.2,18.4-2.2,27.6c-0.1,0.6-0.2,1.2-0.3,1.8c-1.1,7-2.4,14-3.8,20.9
		c-5.8,28.9-13.9,57.3-24.5,84.8c-1,2.7-2.6,5.6-3.6,8.5c-3.2,6.9-6.5,13.7-10.1,20.4c-7.2,13.5-15.3,26.3-24.1,38.8
		c-2.1,2.5-4.2,5-6.3,7.4c-5.4,6-11.1,11.8-17.1,17.3c-2,1.9-4.1,3.7-6.2,5.4c-6.5,4.5-13.1,8.8-20.1,12.5c-2.5,1.4-5.1,2.6-7.7,3.9
		c-7.9,2.8-15.9,5.2-24.1,6.9h-0.1c-1.9,0.5-4.8,1.1-7.2,1.3c-1.2,0.2-2.3,0.4-3.4,0.7c1-0.2,1.9-0.4,2.7-0.6
		c-10.5,0.8-21,0.8-31.5,0.2c-2.3-0.1-5.7-0.7-8.2-1.1c1.9,0.4,4.8,0.9,8.9,1.8c-4.6-0.9-9.3-1.5-13.9-2.4c-9.4-2-18.7-4.6-27.8-7.9
		c-1.6-0.6-3.1-1.2-4.6-1.7c-1.6-1-3.1-2-4-2.4c-8.1-4.3-15.7-9.3-23.3-14.4c-3.2-2.7-6.3-5.4-9.3-8.3c-6.7-6.3-12.9-12.9-18.8-19.9
		c-1-1.2-2.1-2.5-3.1-3.7c-0.2-0.2-0.3-0.4-0.5-0.5c-0.8-1.2-1.5-2.4-2.2-3.4c-5.6-8.1-10.8-16.5-15.6-25.2
		c-4.3-7.7-8.3-15.7-12.1-23.7c-0.2-0.4-0.4-0.9-0.6-1.5c0.3,0.9,0.7,1.9,1.1,3c-1.7-4.7-3.7-9.4-5.5-14.1
		c-6.4-17.3-11.6-35.1-15.7-53.1c-2-8.6-3.7-17.3-5.2-26.1c-0.1-0.8-0.4-2-0.7-3.2c0-0.2-0.1-0.5-0.1-0.7c-0.2-1.6-0.4-3.2-0.6-4.8
		c-1.4-12.8-2.4-25.7-2.7-38.7c0.2-4.3,0.3-8.7,0.3-13.1c0-1.2,0-2.4-0.1-3.5c-1.1-86.2-27.2-173.5-77.6-243.8
		c-53.5-74.4-124.7-129.2-210.6-161.1c-165.3-61-364.3-7.6-476,128c-59.6,72.4-94.7,157.5-102.2,251.1
		c-7.1,87.5,15.6,178.9,61.2,253.7c43.8,71.9,109.6,133.2,186.6,167.9c86.7,39.1,179.7,50.5,273.3,32.3
		c107.2-20.9,203.4-86.8,266.4-175.7c44.6,79,113.6,140,209.5,153.6c47.6,6.7,96.7,5.6,141.9-12.5c40.4-16.2,76.8-39.9,106-72.5
		c50.2-56.2,82.1-127.2,99.9-199.9c15.9-65.1,18.8-129.6,12.7-196.1c-8.5-92.8-29.1-183.7-65-269.9
		c-71.6-172.1-190.1-318.4-344.6-423.1C1319.7,79.6,1134.6,24.7,950.5,26c-184.6,1.3-369.6,58.3-521,164.4
		c-153.4,107.4-270,255.7-338.9,429.7c-69.2,174.6-80.4,372.1-35.8,554.2c43,175.8,140.9,338.9,274.4,461
		c135,123.4,306,209.1,487.4,236.1c48.4,7.2,96.9,11.8,145.9,11.9c0.4,0,0.9,0,1.3,0c0.4,0,0.9,0,1.3,0c80.2,0,160.3,0,240.5,0
		c104,0,208.3,1.8,312.1-2.5c87.6-3.7,176.7-12.2,261.4-36.1c86.9-24.5,167-66.1,235.1-125.4c67.9-59.2,124.9-135.5,170.3-213
		c47.1-80.3,83-168.6,104.3-259.3c28.6-122.1,25.8-246.9,27.8-371.3v-2.6c0.1-6.6,1-20,1-20c0.9-10.4,2.3-20.7,3.4-31.1
		c0.2-1.4,0.4-2.8,0.6-4.2c1-6.4,2-12.7,3.2-19c8.1-45,19.8-89.3,35.2-132.3c3.4-9.4,6.9-18.8,10.6-28.2c0.8-2,1.6-4,2.5-6
		c2-4.4,3.9-8.9,5.9-13.3c9.3-20.4,19.4-40.4,30.3-59.9c10.9-19.5,22.5-38.5,34.9-57c5.8-8.7,11.8-17.3,18-25.9
		c2.9-4,5.8-8,8.8-11.9c0.2-0.3,0.7-0.9,1.3-1.7c0.5-0.7,1-1.2,1.3-1.6c27.6-34.7,57.9-67.3,90.7-97.2
		c15.6-14.3,32.1-27.4,48.5-40.9c0.9-0.7,1.9-1.4,2.9-2.1c4.5-3.3,9-6.6,13.5-9.8c9.6-6.8,19.3-13.4,29.1-19.8
		c37-24,75.8-45.1,116.1-62.9c1.9-0.8,3.8-1.6,5.7-2.4c3.4-1.4,6.9-2.8,10.4-4.2c11.1-4.4,22.3-8.5,33.6-12.3
		c20.9-7.2,42.1-13.5,63.6-19c22.3-5.7,44.8-10.4,67.5-14.2c5.7-1,11.4-1.9,17.1-2.7c1.1-0.1,2-0.3,2.4-0.3
		c11.6-1.4,23.3-2.5,35-3.5c47.2-3.7,94.8-3.3,142,1c5.2,0.5,10.4,1,15.5,1.6c1.2,0.1,4.5,0.5,7.7,0.9c3.7,0.5,10.5,1.5,12,1.7
		c6.4,1,12.7,2.1,19,3.3c22,4,43.8,8.9,65.4,14.7c22,5.9,43.7,12.7,65.1,20.4c8.8,3.2,17.5,6.5,26.1,9.9c1.1,0.4,2.9,1,4.3,1.6
		c0.9,0.4,1.9,0.8,2.8,1.3c1.2,0.5,2.4,1,3.6,1.5c-0.8-0.3-1.4-0.5-2.1-0.8c4.3,1.9,8.6,3.7,12.8,5.7
		c40.7,18.7,79.9,40.6,117.1,65.6c8.7,5.9,17.4,11.9,25.9,18.1c3.4,2.5,6.7,5,10.1,7.5c-0.7-0.6-1.3-1.1-2.1-1.8
		c1.1,0.9,2.3,1.8,3.4,2.7c0.7,0.5,1.4,1,2,1.5c1.1,0.8,2.3,1.8,3.2,2.6c0,0,0,0,0.1,0c17.4,13.9,34.2,28.5,50.4,43.8
		c16.2,15.2,31.8,31.1,46.7,47.6c6.6,7.3,13.2,14.8,19.5,22.3c3.6,4.3,7.1,8.5,10.6,12.9c1.6,1.9,3.1,3.9,4.7,5.9
		c1.4,1.9,6.8,9,8.1,10.7c2.9,4,5.8,8,8.7,12.1c6.8,9.6,13.4,19.4,19.8,29.3c11.8,18.3,22.9,37,33.3,56.1c10.4,19.3,20.1,39,29,59.1
		c0.6,1.2,1.2,2.5,1.6,3.7c0.2,0.5,0.4,1,0.6,1.6c0.5,1.1,0.9,2.1,1.4,3.2c-0.3-0.6-0.6-1.2-0.9-1.8c1.7,4.3,3.5,8.6,5.1,12.9
		c4.1,10.6,8,21.2,11.6,32c14.8,43.4,25.9,88.1,33.2,133.4c0.6,3.8,1.2,7.7,1.7,11.5c0.3,2.1,0.6,4.2,0.8,6.3
		c1.4,12.3,2.6,24.7,3.5,37c1.4,20,2.1,40,2.1,60c0,23.7,0,47.4,0,71.1c-0.2,30.2-1.9,60.3-5.2,90.3c-0.6,5.4-4.9,29-0.4,4.4
		c-1.3,7-2.1,14-3.2,21c-2.4,14.5-5.2,29-8.4,43.4c-6.2,27.8-13.8,55.3-22.9,82.4c-4.2,12.5-8.7,24.9-13.4,37.2
		c-2.1,5.4-13.1,30-2.8,7.5c-3.1,6.8-6,13.7-9.1,20.6c-23.2,50.7-51.6,99.1-84.5,144.1c-3.6,5-7.5,9.8-11.1,14.8
		c13.7-19.1,1-1.4-2.7,3.2c-9.3,11.5-18.9,22.7-28.8,33.7c-18.1,20.1-37.2,39.4-57.2,57.7c-10,9.1-20.2,18-30.7,26.7
		c-4.4,3.7-8.9,7.2-13.4,10.8c0.5-0.4,1-0.7,1.6-1.1c-0.9,0.6-1.7,1.2-2.5,1.9c-0.5,0.4-1,0.8-1.5,1.2c-1.3,1.1-3.2,2.4-4.4,3.2
		c-1.1,0.9-2.3,1.7-3.4,2.6c-21.9,16.1-44.6,31.2-68,45.1c-24,14.3-48.8,27.3-74.1,39.1c-6,2.8-12.1,5.5-18.1,8.2
		c-1.5,0.6-3,1.3-4.6,1.9c-14,5.6-28.1,10.9-42.4,15.7c-26.4,9-53.2,16.6-80.3,22.9c-13.7,3.2-27.5,6-41.4,8.4
		c-6.3,1.1-12.7,2.2-19,3.1c-3.8,0.6-7.7,1-11.5,1.7c2.3-0.4,4.2-0.7,5.7-1c-2.3,0.4-4.8,0.7-6.2,0.9c-63.1,7.3-127,7.4-190.2,0.2
		c-2.1-0.2-8.8-2-12.3-2c-1.7-0.2-4.6-0.4-6.3-0.6c-9.2-1.5-18.3-3.1-27.4-4.9c-18.2-3.5-36.2-7.7-54.1-12.4
		c-19.2-5.1-38.3-10.9-57.1-17.4c-8.6-3-17.2-6.1-25.8-9.4c-4.3-1.6-8.5-3.3-12.8-5l0,0c-1.9-3.8-24.7-10.9-28.9-12.9
		c-8.2-3.9-16.3-7.9-24.4-12c-16.7-8.6-33.2-17.8-49.3-27.5s-31.8-19.9-47.2-30.7c-7.4-5.2-14.7-10.4-21.9-15.8l0,0
		c-0.4-1.7-12.5-9.8-14-11.1c-15-12.2-29.9-20.7-49.9-20.7c-17.3,0-38,7.7-49.9,20.7c-23.7,25.8-30.6,74.9,0,99.8
		c116.7,94.9,253.7,163.4,402.1,191.4c137.8,26,280.7,21.5,415.9-16.3c236.5-66.2,442.2-231.9,555.5-450
		c59.4-114.4,93.9-240.1,101.3-368.5c1-4.6,1.5-9.5,1.5-14.5C3976.3,972.9,3978.3,914.4,3973.3,856.4z M1136.2,1186.2L1136.2,1186.2
		C1130.1,1191.3,1132.8,1188.9,1136.2,1186.2z M1248.2,982.3c-0.3,3.9-0.7,7.8-1.1,11.7c0,0.2,0,0.3-0.1,0.5
		c-2.9,18.2-7.3,36.2-13,53.7c-2.3,7.1-5,14.2-7.6,21.2c-0.1,0.2-0.1,0.3-0.2,0.5c-2.2,4.5-4.2,9-6.5,13.5
		c-7.8,15.5-16.8,30.3-26.8,44.5c-1.9,2.7-4,5.3-5.9,8c-0.3,0.4-0.7,0.8-1,1.2c-5.9,7.1-12.1,14-18.5,20.6
		c-5.6,5.7-11.3,11.3-17.3,16.7c-3.2,2.9-6.4,5.7-9.7,8.5c-0.7,0.6-1.5,1.2-2.2,1.8c-13.9,8.9-26.8,18.9-41.4,27
		c-7.6,4.2-15.4,8.2-23.3,11.8c-0.1,0-0.2,0.1-0.3,0.1c-3.5,1.4-7,2.9-10.6,4.2c-17.2,6.3-35,11.3-53,14.9c-4,0.8-7.9,1.5-11.9,2.2
		c-9.1,0.5-18.1,1.8-27.2,2.1c-18.1,0.7-35.9-0.3-53.9-1.9c-4.3-0.7-8.7-1.5-13-2.4c-9.4-1.9-18.6-4.1-27.8-6.7
		c-7.9-2.2-15.7-4.8-23.4-7.5c-3.1-1.1-6.2-2.3-9.4-3.5c-1.3-0.6-2.6-1.1-3.3-1.5c-15.8-7.3-31-15.7-45.5-25.2
		c-6.4-4.1-12.3-8.9-18.6-13.2c-0.4-0.3-0.9-0.7-1.3-1c-3.3-2.8-6.6-5.6-9.8-8.4c-13.3-11.9-25.7-24.8-37.1-38.5
		c-0.3-0.3-0.5-0.7-0.8-1.1c0.5,0.7,1,1.5,1.5,2.3c-2-3.1-4.4-5.9-6.6-8.9c-5.4-7.6-10.4-15.3-15.2-23.2c-4.5-7.4-8.7-15-12.6-22.8
		c-2-3.9-3.9-7.8-5.7-11.8c-0.3-0.6-0.5-1.1-0.7-1.7c-5.9-16.2-11.6-32.2-15.6-49c-1.9-8.1-3.6-16.2-5-24.4v-0.1
		c-0.2-4.6-1.1-9.4-1.4-13.9c-1.4-18.4-1.4-36.9,0-55.3c0.3-4.1,0.8-8.2,1.2-12.2c1.5-9.4,3.4-18.8,5.7-28.1
		c4-16.4,9.8-31.8,15.4-47.6c0.2-0.4,0.4-0.9,0.5-1.2c1.6-3.4,3.2-6.8,4.9-10.1c4.2-8.3,8.7-16.5,13.5-24.4
		c4.5-7.4,9.2-14.7,14.2-21.7c1.7-2.4,3.6-4.7,5.3-7.1c0.9-1.2,1.8-2.3,2.8-3.5c11.1-13.2,23.1-25.6,36-37.1
		c2.8-2.5,5.5-4.9,8.4-7.3c0.8-0.6,3.2-2.6,5.2-4.2c1.6-1.2,3.2-2.4,3.9-2.9c4-2.9,8.1-5.6,12.2-8.3c14.5-9.5,29.8-17.9,45.5-25.2
		c1.1-0.5,2.3-1,3.5-1.5c2.4-1,4.9-2,7.4-2.9c8.9-3.2,17.9-6.1,27-8.7c8-2.2,16-4.2,24.1-5.8c4.4-0.9,8.8-1.7,13.2-2.5
		c0.5-0.1,1.1-0.2,1.6-0.3c18-1.4,35.8-2.6,53.9-2c8.8,0.3,17.4,1.2,26.2,2c5,0.8,9.9,1.7,14.8,2.7c17.4,3.6,34.4,8.4,51.1,14.5
		c2.8,1,5.5,2.1,8.3,3.2c0.3,0.1,0.6,0.2,0.9,0.4c8.4,4,16.8,8.1,25,12.6c12,6.6,22.9,14.4,34.1,22.1c-0.2-0.2,3.9,2.4,6.8,4.6
		c0.8,0.6,1.7,1.1,2.5,1.7c-0.8-0.6-1.6-1.1-2.3-1.5c0.4,0.3,0.7,0.6,1.1,0.8c3.3,2.8,6.6,5.6,9.8,8.4c6.9,6.2,13.5,12.6,19.9,19.2
		c5.5,5.8,10.9,11.7,16,17.8c0.7,0.9,2.3,2.9,3.8,4.7c1.7,2.2,3.6,4.8,4.4,6c10,14.2,18.9,29.1,26.8,44.5c2,3.9,3.9,7.8,5.7,11.7
		c0.4,0.8,0.7,1.6,1,2.5c2.8,7.5,5.7,15,8.2,22.7c5.4,17,9.6,34.3,12.4,51.9c0.3,3.4,0.7,6.8,1,10.2c0.6,7.2,0.9,14.4,1.1,21.6
		c-0.3,2.6-0.5,5.3-0.4,8c0,4.7,0.1,9.5,0.3,14.2C1248.8,973.4,1248.5,977.8,1248.2,982.3z M1392.1,1002.1c0-0.1,0.8,5.7,1.2,9.4
		C1392.5,1008.3,1391.5,1004.3,1392.1,1002.1z M1451.2,1161c2,2.5,4.3,5.3,4.3,5.3C1453.9,1164.9,1452.5,1162.9,1451.2,1161z
		 M1510.1,1209c3.1,1.2,6.8,2.6,6.7,2.7C1515.2,1211.8,1512.6,1210.4,1510.1,1209z M1582.4,476.4c0.7,0.9,1.4,1.8,2.2,2.7
		C1584,478.4,1583.2,477.4,1582.4,476.4z M1580.5,473.9C1578.6,471.3,1577.4,469.8,1580.5,473.9L1580.5,473.9z M3828.5,821.5
		L3828.5,821.5L3828.5,821.5z"/>
	<path class="st6" d="M3775.1,630c-0.2-0.5-0.5-1-0.7-1.5c-1.7-3.6-2.9-5.5,2.8,6.5c-0.2-0.4-0.4-0.9-0.5-1.3
		C3776.1,632.5,3775.6,631.3,3775.1,630z"/>
	<path class="st6" d="M3537,323.7c8.5,7,8.5,6.8,6.5,5.1c-1.7-1.4-3.5-2.8-5.3-4.1C3537.9,324.4,3537.4,324.1,3537,323.7z"/>
	<path class="st6" d="M3177.4,1749.7C3182.9,1748.8,3187.7,1747.9,3177.4,1749.7L3177.4,1749.7z"/>
	<path class="st6" d="M3541.3,1596.9c-9.3,6.6-9.1,6.7-6.8,5.2c2-1.5,3.9-3,5.9-4.4C3540.7,1597.3,3541,1597.1,3541.3,1596.9z"/>
</g>
</svg>
